<mxfile host="app.diagrams.net" agent="Mozilla/5.0 (Windows NT 10.0; Win64; x64) AppleWebKit/537.36 (KHTML, like Gecko) Chrome/130.0.0.0 Safari/537.36 Edg/130.0.0.0" version="24.7.17" pages="4">
  <diagram name="Page-1" id="vjsIKobl36Vo63eAtjxU">
    <mxGraphModel grid="1" page="1" gridSize="10" guides="1" tooltips="1" connect="1" arrows="1" fold="1" pageScale="1" pageWidth="850" pageHeight="1100" math="0" shadow="0">
      <root>
        <mxCell id="0" />
        <mxCell id="1" parent="0" />
        <mxCell id="tGQ37e9llcpJazkp8wCg-7" value="virtual classroom" style="html=1;dashed=0;whiteSpace=wrap;" vertex="1" parent="1">
          <mxGeometry x="425" y="470" width="100" height="140" as="geometry" />
        </mxCell>
        <mxCell id="tGQ37e9llcpJazkp8wCg-8" value="learning management" style="html=1;dashed=0;whiteSpace=wrap;" vertex="1" parent="1">
          <mxGeometry x="400" y="130" width="240" height="50" as="geometry" />
        </mxCell>
        <mxCell id="tGQ37e9llcpJazkp8wCg-9" value="students" style="html=1;dashed=0;whiteSpace=wrap;" vertex="1" parent="1">
          <mxGeometry x="760" y="100" width="230" height="50" as="geometry" />
        </mxCell>
        <mxCell id="tGQ37e9llcpJazkp8wCg-10" value="teacher" style="html=1;dashed=0;whiteSpace=wrap;" vertex="1" parent="1">
          <mxGeometry x="40" y="360" width="100" height="50" as="geometry" />
        </mxCell>
        <mxCell id="tGQ37e9llcpJazkp8wCg-11" value="" style="endArrow=classic;html=1;rounded=0;entryX=0;entryY=0;entryDx=0;entryDy=0;exitX=1;exitY=0;exitDx=0;exitDy=0;" edge="1" parent="1" source="tGQ37e9llcpJazkp8wCg-10" target="tGQ37e9llcpJazkp8wCg-7">
          <mxGeometry width="50" height="50" relative="1" as="geometry">
            <mxPoint x="200" y="160" as="sourcePoint" />
            <mxPoint x="250" y="110" as="targetPoint" />
          </mxGeometry>
        </mxCell>
        <mxCell id="tGQ37e9llcpJazkp8wCg-21" value="sets a live event&lt;div&gt;&lt;br&gt;&lt;/div&gt;" style="edgeLabel;html=1;align=center;verticalAlign=middle;resizable=0;points=[];" connectable="0" vertex="1" parent="tGQ37e9llcpJazkp8wCg-11">
          <mxGeometry x="-0.7766" y="-2" relative="1" as="geometry">
            <mxPoint as="offset" />
          </mxGeometry>
        </mxCell>
        <mxCell id="tGQ37e9llcpJazkp8wCg-14" value="" style="endArrow=classic;html=1;rounded=0;exitX=0.162;exitY=1.004;exitDx=0;exitDy=0;exitPerimeter=0;" edge="1" parent="1" source="tGQ37e9llcpJazkp8wCg-9">
          <mxGeometry width="50" height="50" relative="1" as="geometry">
            <mxPoint x="814.3800000000001" y="162.60000000000002" as="sourcePoint" />
            <mxPoint x="520" y="470" as="targetPoint" />
          </mxGeometry>
        </mxCell>
        <mxCell id="tGQ37e9llcpJazkp8wCg-24" value="requests to join&lt;div&gt;&lt;br&gt;&lt;/div&gt;" style="edgeLabel;html=1;align=center;verticalAlign=middle;resizable=0;points=[];" connectable="0" vertex="1" parent="tGQ37e9llcpJazkp8wCg-14">
          <mxGeometry x="-0.2469" y="-1" relative="1" as="geometry">
            <mxPoint as="offset" />
          </mxGeometry>
        </mxCell>
        <mxCell id="tGQ37e9llcpJazkp8wCg-15" value="" style="endArrow=classic;html=1;rounded=0;entryX=0;entryY=1;entryDx=0;entryDy=0;" edge="1" parent="1" target="tGQ37e9llcpJazkp8wCg-8">
          <mxGeometry width="50" height="50" relative="1" as="geometry">
            <mxPoint x="440" y="460" as="sourcePoint" />
            <mxPoint x="450" y="270" as="targetPoint" />
          </mxGeometry>
        </mxCell>
        <mxCell id="tGQ37e9llcpJazkp8wCg-23" value="update classes&lt;div&gt;&lt;br&gt;&lt;/div&gt;" style="edgeLabel;html=1;align=center;verticalAlign=middle;resizable=0;points=[];" connectable="0" vertex="1" parent="tGQ37e9llcpJazkp8wCg-15">
          <mxGeometry x="0.2003" relative="1" as="geometry">
            <mxPoint as="offset" />
          </mxGeometry>
        </mxCell>
        <mxCell id="tGQ37e9llcpJazkp8wCg-20" value="" style="endArrow=classic;html=1;rounded=0;exitX=0.457;exitY=1.068;exitDx=0;exitDy=0;entryX=0.994;entryY=0.384;entryDx=0;entryDy=0;exitPerimeter=0;entryPerimeter=0;" edge="1" parent="1" source="tGQ37e9llcpJazkp8wCg-9" target="tGQ37e9llcpJazkp8wCg-7">
          <mxGeometry width="50" height="50" relative="1" as="geometry">
            <mxPoint x="990" y="125" as="sourcePoint" />
            <mxPoint x="525" y="470" as="targetPoint" />
          </mxGeometry>
        </mxCell>
        <mxCell id="tGQ37e9llcpJazkp8wCg-25" value="uploads assignments&lt;div&gt;&lt;br&gt;&lt;/div&gt;" style="edgeLabel;html=1;align=center;verticalAlign=middle;resizable=0;points=[];" connectable="0" vertex="1" parent="tGQ37e9llcpJazkp8wCg-20">
          <mxGeometry x="0.1025" y="1" relative="1" as="geometry">
            <mxPoint as="offset" />
          </mxGeometry>
        </mxCell>
        <mxCell id="tGQ37e9llcpJazkp8wCg-26" value="" style="endArrow=classic;html=1;rounded=0;" edge="1" parent="1">
          <mxGeometry width="50" height="50" relative="1" as="geometry">
            <mxPoint x="460" y="460" as="sourcePoint" />
            <mxPoint x="470" y="185" as="targetPoint" />
          </mxGeometry>
        </mxCell>
        <mxCell id="tGQ37e9llcpJazkp8wCg-27" value="updates grades&lt;div&gt;and feedback&lt;/div&gt;" style="edgeLabel;html=1;align=center;verticalAlign=middle;resizable=0;points=[];" connectable="0" vertex="1" parent="tGQ37e9llcpJazkp8wCg-26">
          <mxGeometry x="0.8092" relative="1" as="geometry">
            <mxPoint as="offset" />
          </mxGeometry>
        </mxCell>
        <mxCell id="tGQ37e9llcpJazkp8wCg-28" value="" style="endArrow=classic;html=1;rounded=0;exitX=1;exitY=1;exitDx=0;exitDy=0;entryX=0.75;entryY=1;entryDx=0;entryDy=0;" edge="1" parent="1" source="tGQ37e9llcpJazkp8wCg-7" target="tGQ37e9llcpJazkp8wCg-9">
          <mxGeometry width="50" height="50" relative="1" as="geometry">
            <mxPoint x="400" y="320" as="sourcePoint" />
            <mxPoint x="890" y="160" as="targetPoint" />
          </mxGeometry>
        </mxCell>
        <mxCell id="tGQ37e9llcpJazkp8wCg-30" value="notify student&lt;div&gt;on grades and&lt;/div&gt;&lt;div&gt;feedback&lt;/div&gt;" style="edgeLabel;html=1;align=center;verticalAlign=middle;resizable=0;points=[];" connectable="0" vertex="1" parent="tGQ37e9llcpJazkp8wCg-28">
          <mxGeometry x="0.4651" relative="1" as="geometry">
            <mxPoint as="offset" />
          </mxGeometry>
        </mxCell>
        <mxCell id="tGQ37e9llcpJazkp8wCg-31" value="" style="endArrow=classic;html=1;rounded=0;exitX=1;exitY=0.5;exitDx=0;exitDy=0;entryX=0;entryY=0.5;entryDx=0;entryDy=0;" edge="1" parent="1" source="tGQ37e9llcpJazkp8wCg-10" target="tGQ37e9llcpJazkp8wCg-7">
          <mxGeometry width="50" height="50" relative="1" as="geometry">
            <mxPoint x="480" y="320" as="sourcePoint" />
            <mxPoint x="420" y="500" as="targetPoint" />
          </mxGeometry>
        </mxCell>
        <mxCell id="tGQ37e9llcpJazkp8wCg-32" value="submits&amp;nbsp;&lt;div&gt;gardes and feedback&lt;/div&gt;" style="edgeLabel;html=1;align=center;verticalAlign=middle;resizable=0;points=[];" connectable="0" vertex="1" parent="tGQ37e9llcpJazkp8wCg-31">
          <mxGeometry x="-0.3051" y="-3" relative="1" as="geometry">
            <mxPoint as="offset" />
          </mxGeometry>
        </mxCell>
        <mxCell id="tGQ37e9llcpJazkp8wCg-33" value="" style="endArrow=classic;html=1;rounded=0;exitX=-0.078;exitY=0.948;exitDx=0;exitDy=0;exitPerimeter=0;entryX=0.836;entryY=1.132;entryDx=0;entryDy=0;entryPerimeter=0;" edge="1" parent="1" source="tGQ37e9llcpJazkp8wCg-7" target="tGQ37e9llcpJazkp8wCg-10">
          <mxGeometry width="50" height="50" relative="1" as="geometry">
            <mxPoint x="480" y="320" as="sourcePoint" />
            <mxPoint x="530" y="270" as="targetPoint" />
          </mxGeometry>
        </mxCell>
        <mxCell id="tGQ37e9llcpJazkp8wCg-34" value="notify&amp;nbsp;&lt;div&gt;teacher of&amp;nbsp;&lt;/div&gt;&lt;div&gt;new submission&lt;/div&gt;" style="edgeLabel;html=1;align=center;verticalAlign=middle;resizable=0;points=[];" connectable="0" vertex="1" parent="tGQ37e9llcpJazkp8wCg-33">
          <mxGeometry x="0.1363" y="4" relative="1" as="geometry">
            <mxPoint as="offset" />
          </mxGeometry>
        </mxCell>
        <mxCell id="tGQ37e9llcpJazkp8wCg-35" value="" style="endArrow=classic;html=1;rounded=0;entryX=1;entryY=1;entryDx=0;entryDy=0;" edge="1" parent="1" target="tGQ37e9llcpJazkp8wCg-8">
          <mxGeometry width="50" height="50" relative="1" as="geometry">
            <mxPoint x="500" y="460" as="sourcePoint" />
            <mxPoint x="530" y="300" as="targetPoint" />
          </mxGeometry>
        </mxCell>
        <mxCell id="tGQ37e9llcpJazkp8wCg-36" value="stores&lt;div&gt;assignments&lt;/div&gt;" style="edgeLabel;html=1;align=center;verticalAlign=middle;resizable=0;points=[];" connectable="0" vertex="1" parent="tGQ37e9llcpJazkp8wCg-35">
          <mxGeometry x="-0.1486" y="2" relative="1" as="geometry">
            <mxPoint as="offset" />
          </mxGeometry>
        </mxCell>
        <mxCell id="tGQ37e9llcpJazkp8wCg-37" value="" style="endArrow=classic;html=1;rounded=0;entryX=0.583;entryY=1;entryDx=0;entryDy=0;entryPerimeter=0;" edge="1" parent="1" target="tGQ37e9llcpJazkp8wCg-8">
          <mxGeometry width="50" height="50" relative="1" as="geometry">
            <mxPoint x="480" y="460" as="sourcePoint" />
            <mxPoint x="530" y="300" as="targetPoint" />
          </mxGeometry>
        </mxCell>
        <mxCell id="tGQ37e9llcpJazkp8wCg-38" value="saves class&lt;div&gt;attendance&lt;/div&gt;" style="edgeLabel;html=1;align=center;verticalAlign=middle;resizable=0;points=[];" connectable="0" vertex="1" parent="tGQ37e9llcpJazkp8wCg-37">
          <mxGeometry x="0.4881" y="-1" relative="1" as="geometry">
            <mxPoint as="offset" />
          </mxGeometry>
        </mxCell>
      </root>
    </mxGraphModel>
  </diagram>
  <diagram id="E_iu-IMse6yLebg9O2_-" name="Page-2">
    <mxGraphModel grid="1" page="1" gridSize="10" guides="1" tooltips="1" connect="1" arrows="1" fold="1" pageScale="1" pageWidth="850" pageHeight="1100" math="0" shadow="0">
      <root>
        <mxCell id="0" />
        <mxCell id="1" parent="0" />
        <mxCell id="nC5KfrtsEujy_4Zf4hOm-9" value="&lt;p style=&quot;margin:0px;margin-top:4px;text-align:center;&quot;&gt;&lt;b&gt;Class&lt;/b&gt;&lt;/p&gt;&lt;hr size=&quot;1&quot; style=&quot;border-style:solid;&quot;&gt;&lt;p style=&quot;margin:0px;margin-left:4px;&quot;&gt;+ userID: sting&lt;br&gt;+name:string&lt;br&gt;+email:string&lt;br&gt;-password: string&lt;/p&gt;&lt;hr size=&quot;1&quot; style=&quot;border-style:solid;&quot;&gt;&lt;p style=&quot;margin:0px;margin-left:4px;&quot;&gt;+ login()&lt;/p&gt;&lt;p style=&quot;margin:0px;margin-left:4px;&quot;&gt;+logout()&lt;/p&gt;&lt;p style=&quot;margin:0px;margin-left:4px;&quot;&gt;+viewprofile()&lt;/p&gt;" style="verticalAlign=top;align=left;overflow=fill;html=1;whiteSpace=wrap;" vertex="1" parent="1">
          <mxGeometry x="340" y="190" width="160" height="200" as="geometry" />
        </mxCell>
        <mxCell id="0wikRgi2lv0qi3kRRr1z-1" style="edgeStyle=orthogonalEdgeStyle;rounded=0;orthogonalLoop=1;jettySize=auto;html=1;" edge="1" parent="1" source="nC5KfrtsEujy_4Zf4hOm-11" target="nC5KfrtsEujy_4Zf4hOm-9">
          <mxGeometry relative="1" as="geometry" />
        </mxCell>
        <mxCell id="0wikRgi2lv0qi3kRRr1z-3" value="inherits" style="edgeLabel;html=1;align=center;verticalAlign=middle;resizable=0;points=[];" connectable="0" vertex="1" parent="0wikRgi2lv0qi3kRRr1z-1">
          <mxGeometry x="0.5979" y="-2" relative="1" as="geometry">
            <mxPoint as="offset" />
          </mxGeometry>
        </mxCell>
        <mxCell id="nC5KfrtsEujy_4Zf4hOm-11" value="&lt;p style=&quot;margin:0px;margin-top:4px;text-align:center;&quot;&gt;&lt;b&gt;student&lt;/b&gt;&lt;/p&gt;&lt;hr size=&quot;1&quot; style=&quot;border-style:solid;&quot;&gt;&lt;p style=&quot;margin:0px;margin-left:4px;&quot;&gt;- studentID : string&lt;br&gt;-enrolledcourses: list&lt;br&gt;-grades: map&lt;/p&gt;&lt;hr size=&quot;1&quot; style=&quot;border-style:solid;&quot;&gt;&lt;p style=&quot;margin:0px;margin-left:4px;&quot;&gt;+ enrollment():&amp;nbsp;&lt;br&gt;+viewgrades()&lt;/p&gt;&lt;p style=&quot;margin:0px;margin-left:4px;&quot;&gt;+submitAssignments()&lt;/p&gt;" style="verticalAlign=top;align=left;overflow=fill;html=1;whiteSpace=wrap;" vertex="1" parent="1">
          <mxGeometry x="60" y="500" width="160" height="160" as="geometry" />
        </mxCell>
        <mxCell id="nC5KfrtsEujy_4Zf4hOm-12" value="&lt;p style=&quot;margin:0px;margin-top:4px;text-align:center;&quot;&gt;&lt;b&gt;teacher&lt;/b&gt;&lt;/p&gt;&lt;hr size=&quot;1&quot; style=&quot;border-style:solid;&quot;&gt;&lt;p style=&quot;margin:0px;margin-left:4px;&quot;&gt;-TeacherID: String&lt;br&gt;-assignedcourses:list&lt;/p&gt;&lt;p style=&quot;margin:0px;margin-left:4px;&quot;&gt;-&lt;/p&gt;&lt;hr size=&quot;1&quot; style=&quot;border-style:solid;&quot;&gt;&lt;p style=&quot;margin:0px;margin-left:4px;&quot;&gt;+ createcouse()&lt;/p&gt;&lt;p style=&quot;margin:0px;margin-left:4px;&quot;&gt;+gradeAssignments()&lt;/p&gt;&lt;p style=&quot;margin:0px;margin-left:4px;&quot;&gt;+uploadmaterial()&lt;/p&gt;" style="verticalAlign=top;align=left;overflow=fill;html=1;whiteSpace=wrap;" vertex="1" parent="1">
          <mxGeometry x="580" y="490" width="160" height="230" as="geometry" />
        </mxCell>
        <mxCell id="0wikRgi2lv0qi3kRRr1z-2" style="edgeStyle=orthogonalEdgeStyle;rounded=0;orthogonalLoop=1;jettySize=auto;html=1;entryX=0.162;entryY=1.004;entryDx=0;entryDy=0;entryPerimeter=0;" edge="1" parent="1" source="nC5KfrtsEujy_4Zf4hOm-13" target="nC5KfrtsEujy_4Zf4hOm-11">
          <mxGeometry relative="1" as="geometry">
            <mxPoint x="130" y="885" as="targetPoint" />
          </mxGeometry>
        </mxCell>
        <mxCell id="nC5KfrtsEujy_4Zf4hOm-13" value="&lt;p style=&quot;margin:0px;margin-top:4px;text-align:center;&quot;&gt;&lt;b&gt;course&lt;/b&gt;&lt;/p&gt;&lt;hr size=&quot;1&quot; style=&quot;border-style:solid;&quot;&gt;&lt;p style=&quot;margin:0px;margin-left:4px;&quot;&gt;-courseID: string&lt;br&gt;-coursename:string&lt;br&gt;-teacher:teacher&lt;br&gt;-material: list&lt;br&gt;-assignment: list&lt;/p&gt;&lt;hr size=&quot;1&quot; style=&quot;border-style:solid;&quot;&gt;&lt;p style=&quot;margin:0px;margin-left:4px;&quot;&gt;+ addstudent()&lt;br&gt;+removestudent()&lt;/p&gt;&lt;p style=&quot;margin:0px;margin-left:4px;&quot;&gt;+uploadmaterial()&lt;/p&gt;&lt;p style=&quot;margin:0px;margin-left:4px;&quot;&gt;+assignment()&lt;/p&gt;" style="verticalAlign=top;align=left;overflow=fill;html=1;whiteSpace=wrap;" vertex="1" parent="1">
          <mxGeometry x="160" y="790" width="160" height="190" as="geometry" />
        </mxCell>
        <mxCell id="nC5KfrtsEujy_4Zf4hOm-14" value="&lt;p style=&quot;margin:0px;margin-top:4px;text-align:center;&quot;&gt;&lt;b&gt;Material&lt;/b&gt;&lt;/p&gt;&lt;hr size=&quot;1&quot; style=&quot;border-style:solid;&quot;&gt;&lt;p style=&quot;margin:0px;margin-left:4px;&quot;&gt;- materialID: string&lt;/p&gt;&lt;p style=&quot;margin:0px;margin-left:4px;&quot;&gt;-title: string&lt;br&gt;-content:string&lt;br&gt;-uploadedBy:teacher&lt;/p&gt;&lt;hr size=&quot;1&quot; style=&quot;border-style:solid;&quot;&gt;&lt;p style=&quot;margin:0px;margin-left:4px;&quot;&gt;+ viewMaterial()&lt;/p&gt;&lt;p style=&quot;margin:0px;margin-left:4px;&quot;&gt;+downloadMaterial()&lt;/p&gt;" style="verticalAlign=top;align=left;overflow=fill;html=1;whiteSpace=wrap;" vertex="1" parent="1">
          <mxGeometry x="160" y="1100" width="160" height="230" as="geometry" />
        </mxCell>
        <mxCell id="nC5KfrtsEujy_4Zf4hOm-18" value="&lt;p style=&quot;margin:0px;margin-top:4px;text-align:center;&quot;&gt;&lt;b&gt;Assignment&lt;/b&gt;&lt;/p&gt;&lt;hr size=&quot;1&quot; style=&quot;border-style:solid;&quot;&gt;&lt;p style=&quot;margin:0px;margin-left:4px;&quot;&gt;- assignmentID: string&lt;br&gt;-title: string&lt;br&gt;-description string&lt;br&gt;-duedate:date&lt;/p&gt;&lt;p style=&quot;margin:0px;margin-left:4px;&quot;&gt;-course:cousse&lt;/p&gt;&lt;hr size=&quot;1&quot; style=&quot;border-style:solid;&quot;&gt;&lt;p style=&quot;margin:0px;margin-left:4px;&quot;&gt;+ submitAssignment()&lt;/p&gt;&lt;p style=&quot;margin:0px;margin-left:4px;&quot;&gt;+viewsubmission()&lt;/p&gt;" style="verticalAlign=top;align=left;overflow=fill;html=1;whiteSpace=wrap;" vertex="1" parent="1">
          <mxGeometry x="410" y="1100" width="160" height="220" as="geometry" />
        </mxCell>
        <mxCell id="nC5KfrtsEujy_4Zf4hOm-21" value="&lt;p style=&quot;margin:0px;margin-top:4px;text-align:center;&quot;&gt;&lt;b&gt;discussionBoard&lt;/b&gt;&lt;/p&gt;&lt;hr size=&quot;1&quot; style=&quot;border-style:solid;&quot;&gt;&lt;p style=&quot;margin:0px;margin-left:4px;&quot;&gt;-discussionId: string&lt;br&gt;-course: course&lt;br&gt;-post:list&lt;/p&gt;&lt;hr size=&quot;1&quot; style=&quot;border-style:solid;&quot;&gt;&lt;p style=&quot;margin:0px;margin-left:4px;&quot;&gt;+ createpost()&lt;/p&gt;&lt;p style=&quot;margin:0px;margin-left:4px;&quot;&gt;+reply to post()&lt;/p&gt;" style="verticalAlign=top;align=left;overflow=fill;html=1;whiteSpace=wrap;" vertex="1" parent="1">
          <mxGeometry x="630" y="1100" width="160" height="230" as="geometry" />
        </mxCell>
        <mxCell id="0wikRgi2lv0qi3kRRr1z-5" style="edgeStyle=orthogonalEdgeStyle;rounded=0;orthogonalLoop=1;jettySize=auto;html=1;entryX=0.25;entryY=1;entryDx=0;entryDy=0;" edge="1" parent="1" source="nC5KfrtsEujy_4Zf4hOm-22" target="nC5KfrtsEujy_4Zf4hOm-14">
          <mxGeometry relative="1" as="geometry" />
        </mxCell>
        <mxCell id="nC5KfrtsEujy_4Zf4hOm-22" value="&lt;p style=&quot;margin:0px;margin-top:4px;text-align:center;&quot;&gt;&lt;b&gt;grade&lt;/b&gt;&lt;/p&gt;&lt;hr size=&quot;1&quot; style=&quot;border-style:solid;&quot;&gt;&lt;p style=&quot;margin:0px;margin-left:4px;&quot;&gt;- gradeID: String&lt;br&gt;-assigment:Assignment&lt;br&gt;-student:student:&lt;/p&gt;&lt;p style=&quot;margin:0px;margin-left:4px;&quot;&gt;-gradeValue: string&lt;/p&gt;&lt;hr size=&quot;1&quot; style=&quot;border-style:solid;&quot;&gt;&lt;p style=&quot;margin:0px;margin-left:4px;&quot;&gt;+ viewgarde()&lt;/p&gt;" style="verticalAlign=top;align=left;overflow=fill;html=1;whiteSpace=wrap;" vertex="1" parent="1">
          <mxGeometry x="170" y="1440" width="160" height="200" as="geometry" />
        </mxCell>
        <mxCell id="0wikRgi2lv0qi3kRRr1z-6" style="edgeStyle=orthogonalEdgeStyle;rounded=0;orthogonalLoop=1;jettySize=auto;html=1;entryX=0.25;entryY=1;entryDx=0;entryDy=0;" edge="1" parent="1" source="nC5KfrtsEujy_4Zf4hOm-23" target="nC5KfrtsEujy_4Zf4hOm-22">
          <mxGeometry relative="1" as="geometry" />
        </mxCell>
        <mxCell id="nC5KfrtsEujy_4Zf4hOm-23" value="&lt;p style=&quot;margin:0px;margin-top:4px;text-align:center;&quot;&gt;&lt;b&gt;post&lt;/b&gt;&lt;/p&gt;&lt;hr size=&quot;1&quot; style=&quot;border-style:solid;&quot;&gt;&lt;p style=&quot;margin:0px;margin-left:4px;&quot;&gt;-postID:string&lt;br&gt;-auther:user&lt;br&gt;-content:string&lt;/p&gt;&lt;hr size=&quot;1&quot; style=&quot;border-style:solid;&quot;&gt;&lt;p style=&quot;margin:0px;margin-left:4px;&quot;&gt;+ viewpost()&lt;br&gt;+ replyPost()&lt;/p&gt;" style="verticalAlign=top;align=left;overflow=fill;html=1;whiteSpace=wrap;" vertex="1" parent="1">
          <mxGeometry x="170" y="1740" width="160" height="170" as="geometry" />
        </mxCell>
        <mxCell id="0wikRgi2lv0qi3kRRr1z-4" style="edgeStyle=orthogonalEdgeStyle;rounded=0;orthogonalLoop=1;jettySize=auto;html=1;entryX=0.163;entryY=0.986;entryDx=0;entryDy=0;entryPerimeter=0;" edge="1" parent="1" source="nC5KfrtsEujy_4Zf4hOm-14" target="nC5KfrtsEujy_4Zf4hOm-13">
          <mxGeometry relative="1" as="geometry" />
        </mxCell>
        <mxCell id="0wikRgi2lv0qi3kRRr1z-7" style="edgeStyle=orthogonalEdgeStyle;rounded=0;orthogonalLoop=1;jettySize=auto;html=1;entryX=0.827;entryY=0.993;entryDx=0;entryDy=0;entryPerimeter=0;" edge="1" parent="1" source="nC5KfrtsEujy_4Zf4hOm-12" target="nC5KfrtsEujy_4Zf4hOm-9">
          <mxGeometry relative="1" as="geometry" />
        </mxCell>
        <mxCell id="0wikRgi2lv0qi3kRRr1z-8" value="inherit&lt;div&gt;&lt;br&gt;&lt;/div&gt;" style="edgeLabel;html=1;align=center;verticalAlign=middle;resizable=0;points=[];" connectable="0" vertex="1" parent="0wikRgi2lv0qi3kRRr1z-7">
          <mxGeometry x="0.0324" y="-2" relative="1" as="geometry">
            <mxPoint as="offset" />
          </mxGeometry>
        </mxCell>
      </root>
    </mxGraphModel>
  </diagram>
  <diagram id="8P8Orez1pcFCBF_7_RWU" name="Page-4">
    <mxGraphModel dx="1042" dy="1678" grid="1" gridSize="10" guides="1" tooltips="1" connect="1" arrows="1" fold="1" page="1" pageScale="1" pageWidth="850" pageHeight="1100" math="0" shadow="0">
      <root>
        <mxCell id="0" />
        <mxCell id="1" parent="0" />
        <mxCell id="llyji_vWwlnvP6TQmnhk-12" value="MANAGE&amp;nbsp;&lt;div&gt;USERS&lt;/div&gt;" style="ellipse;whiteSpace=wrap;html=1;" parent="1" vertex="1">
          <mxGeometry x="580" y="-150" width="140" height="70" as="geometry" />
        </mxCell>
        <mxCell id="llyji_vWwlnvP6TQmnhk-13" value="LEARNING&amp;nbsp;&lt;div&gt;MATERIAL&lt;/div&gt;" style="ellipse;whiteSpace=wrap;html=1;" parent="1" vertex="1">
          <mxGeometry x="410" y="380" width="140" height="70" as="geometry" />
        </mxCell>
        <mxCell id="llyji_vWwlnvP6TQmnhk-14" value="VIEW GRADES" style="ellipse;whiteSpace=wrap;html=1;" parent="1" vertex="1">
          <mxGeometry x="290" y="470" width="140" height="70" as="geometry" />
        </mxCell>
        <mxCell id="llyji_vWwlnvP6TQmnhk-15" value="GRADE&amp;nbsp;&lt;div&gt;ASSIGNMENT&lt;/div&gt;" style="ellipse;whiteSpace=wrap;html=1;" parent="1" vertex="1">
          <mxGeometry x="480" y="260" width="140" height="70" as="geometry" />
        </mxCell>
        <mxCell id="llyji_vWwlnvP6TQmnhk-16" value="ENROLL COURSE" style="ellipse;whiteSpace=wrap;html=1;" parent="1" vertex="1">
          <mxGeometry x="320" y="250" width="140" height="70" as="geometry" />
        </mxCell>
        <mxCell id="llyji_vWwlnvP6TQmnhk-17" value="SUBMIT&lt;div&gt;ASSIGNMENT&lt;/div&gt;" style="ellipse;whiteSpace=wrap;html=1;" parent="1" vertex="1">
          <mxGeometry x="270" y="90" width="120" height="70" as="geometry" />
        </mxCell>
        <mxCell id="llyji_vWwlnvP6TQmnhk-18" value="1&lt;div&gt;login&lt;/div&gt;" style="ellipse;whiteSpace=wrap;html=1;" parent="1" vertex="1">
          <mxGeometry x="380" y="-110" width="140" height="130" as="geometry" />
        </mxCell>
        <mxCell id="llyji_vWwlnvP6TQmnhk-19" value="STUDENT" style="shape=umlActor;verticalLabelPosition=bottom;verticalAlign=top;html=1;" parent="1" vertex="1">
          <mxGeometry x="80" y="90" width="30" height="90" as="geometry" />
        </mxCell>
        <mxCell id="llyji_vWwlnvP6TQmnhk-21" value="TEACHER" style="shape=umlActor;verticalLabelPosition=bottom;verticalAlign=top;html=1;" parent="1" vertex="1">
          <mxGeometry x="810" y="90" width="30" height="90" as="geometry" />
        </mxCell>
        <mxCell id="llyji_vWwlnvP6TQmnhk-22" value="ADMIN" style="shape=umlActor;verticalLabelPosition=bottom;verticalAlign=top;html=1;" parent="1" vertex="1">
          <mxGeometry x="820" y="-280" width="30" height="90" as="geometry" />
        </mxCell>
        <mxCell id="1mt_KhGt4uNW05eUWwvd-1" value="frame" style="shape=umlFrame;whiteSpace=wrap;html=1;pointerEvents=0;" parent="1" vertex="1">
          <mxGeometry x="150" y="-210" width="610" height="1060" as="geometry" />
        </mxCell>
        <mxCell id="1mt_KhGt4uNW05eUWwvd-5" value="requests to join" style="html=1;verticalAlign=bottom;endArrow=block;curved=0;rounded=0;exitX=0.667;exitY=0.667;exitDx=0;exitDy=0;exitPerimeter=0;" parent="1" source="llyji_vWwlnvP6TQmnhk-19" edge="1">
          <mxGeometry width="80" relative="1" as="geometry">
            <mxPoint x="380" y="140" as="sourcePoint" />
            <mxPoint x="400" y="-10" as="targetPoint" />
          </mxGeometry>
        </mxCell>
        <mxCell id="1mt_KhGt4uNW05eUWwvd-6" value="" style="html=1;verticalAlign=bottom;endArrow=block;curved=0;rounded=0;exitX=0.733;exitY=0.758;exitDx=0;exitDy=0;exitPerimeter=0;" parent="1" source="llyji_vWwlnvP6TQmnhk-19" target="llyji_vWwlnvP6TQmnhk-17" edge="1">
          <mxGeometry width="80" relative="1" as="geometry">
            <mxPoint x="120" y="170" as="sourcePoint" />
            <mxPoint x="270" y="160" as="targetPoint" />
          </mxGeometry>
        </mxCell>
        <mxCell id="aBC0s9N_7OCGeoaSbzhW-1" value="records&lt;div&gt;&amp;nbsp;assignments&lt;/div&gt;" style="edgeLabel;html=1;align=center;verticalAlign=middle;resizable=0;points=[];" parent="1mt_KhGt4uNW05eUWwvd-6" connectable="0" vertex="1">
          <mxGeometry x="-0.0015" y="5" relative="1" as="geometry">
            <mxPoint as="offset" />
          </mxGeometry>
        </mxCell>
        <mxCell id="1mt_KhGt4uNW05eUWwvd-7" value="can enroll&lt;div&gt;for a course&lt;/div&gt;" style="html=1;verticalAlign=bottom;endArrow=block;curved=0;rounded=0;entryX=0;entryY=0.5;entryDx=0;entryDy=0;" parent="1" target="llyji_vWwlnvP6TQmnhk-16" edge="1">
          <mxGeometry width="80" relative="1" as="geometry">
            <mxPoint x="100" y="160" as="sourcePoint" />
            <mxPoint x="320" y="310" as="targetPoint" />
          </mxGeometry>
        </mxCell>
        <mxCell id="1mt_KhGt4uNW05eUWwvd-8" value="view assignment&lt;div&gt;grades&lt;/div&gt;" style="html=1;verticalAlign=bottom;endArrow=block;curved=0;rounded=0;" parent="1" edge="1">
          <mxGeometry width="80" relative="1" as="geometry">
            <mxPoint x="100" y="160" as="sourcePoint" />
            <mxPoint x="340" y="470" as="targetPoint" />
          </mxGeometry>
        </mxCell>
        <mxCell id="1mt_KhGt4uNW05eUWwvd-9" value="login&amp;nbsp;&lt;div&gt;details&lt;/div&gt;" style="html=1;verticalAlign=bottom;endArrow=block;curved=0;rounded=0;exitX=0.667;exitY=0;exitDx=0;exitDy=0;exitPerimeter=0;" parent="1" source="llyji_vWwlnvP6TQmnhk-21" edge="1">
          <mxGeometry width="80" relative="1" as="geometry">
            <mxPoint x="380" y="160" as="sourcePoint" />
            <mxPoint x="520" y="-30" as="targetPoint" />
          </mxGeometry>
        </mxCell>
        <mxCell id="1mt_KhGt4uNW05eUWwvd-11" value="upload&lt;div&gt;videos and notes&amp;nbsp;&lt;/div&gt;" style="html=1;verticalAlign=bottom;endArrow=block;curved=0;rounded=0;entryX=1;entryY=0.286;entryDx=0;entryDy=0;entryPerimeter=0;" parent="1" target="llyji_vWwlnvP6TQmnhk-13" edge="1">
          <mxGeometry width="80" relative="1" as="geometry">
            <mxPoint x="825" y="130" as="sourcePoint" />
            <mxPoint x="570" y="300" as="targetPoint" />
          </mxGeometry>
        </mxCell>
        <mxCell id="1mt_KhGt4uNW05eUWwvd-12" value="login the system" style="html=1;verticalAlign=bottom;endArrow=block;curved=0;rounded=0;exitX=0.333;exitY=0.333;exitDx=0;exitDy=0;exitPerimeter=0;entryX=0.5;entryY=0;entryDx=0;entryDy=0;" parent="1" source="llyji_vWwlnvP6TQmnhk-22" target="llyji_vWwlnvP6TQmnhk-18" edge="1">
          <mxGeometry width="80" relative="1" as="geometry">
            <mxPoint x="810" y="360" as="sourcePoint" />
            <mxPoint x="620" y="480" as="targetPoint" />
          </mxGeometry>
        </mxCell>
        <mxCell id="1mt_KhGt4uNW05eUWwvd-13" value="manage access by&lt;div&gt;teachers and students&lt;/div&gt;" style="html=1;verticalAlign=bottom;endArrow=block;curved=0;rounded=0;exitX=0.333;exitY=0.778;exitDx=0;exitDy=0;exitPerimeter=0;" parent="1" source="llyji_vWwlnvP6TQmnhk-22" edge="1">
          <mxGeometry width="80" relative="1" as="geometry">
            <mxPoint x="390" y="-170" as="sourcePoint" />
            <mxPoint x="710" y="-130" as="targetPoint" />
          </mxGeometry>
        </mxCell>
        <mxCell id="1mt_KhGt4uNW05eUWwvd-15" value="2&lt;div&gt;VIEW&amp;nbsp;&lt;/div&gt;&lt;div&gt;PROFILE&lt;/div&gt;" style="ellipse;whiteSpace=wrap;html=1;" parent="1" vertex="1">
          <mxGeometry x="340" y="170" width="140" height="70" as="geometry" />
        </mxCell>
        <mxCell id="1mt_KhGt4uNW05eUWwvd-17" value="check there&amp;nbsp;&lt;div&gt;profile&lt;/div&gt;" style="html=1;verticalAlign=bottom;endArrow=block;curved=0;rounded=0;exitX=0.64;exitY=0.767;exitDx=0;exitDy=0;exitPerimeter=0;entryX=0.051;entryY=0.603;entryDx=0;entryDy=0;entryPerimeter=0;" parent="1" source="llyji_vWwlnvP6TQmnhk-19" target="1mt_KhGt4uNW05eUWwvd-15" edge="1">
          <mxGeometry width="80" relative="1" as="geometry">
            <mxPoint x="390" y="370" as="sourcePoint" />
            <mxPoint x="280" y="260" as="targetPoint" />
          </mxGeometry>
        </mxCell>
        <mxCell id="aBC0s9N_7OCGeoaSbzhW-5" value="grades&amp;nbsp;&lt;div&gt;submitted&lt;/div&gt;&lt;div&gt;assignments&lt;/div&gt;" style="html=1;verticalAlign=bottom;endArrow=block;curved=0;rounded=0;exitX=0.333;exitY=0.222;exitDx=0;exitDy=0;exitPerimeter=0;entryX=1;entryY=0;entryDx=0;entryDy=0;" parent="1" source="llyji_vWwlnvP6TQmnhk-21" target="llyji_vWwlnvP6TQmnhk-15" edge="1">
          <mxGeometry width="80" relative="1" as="geometry">
            <mxPoint x="390" y="90" as="sourcePoint" />
            <mxPoint x="560" y="190" as="targetPoint" />
          </mxGeometry>
        </mxCell>
        <mxCell id="dnkcXnuNvbxCSVGutcAZ-1" value="view&amp;nbsp;&lt;div&gt;teacher profile&lt;/div&gt;" style="html=1;verticalAlign=bottom;endArrow=block;curved=0;rounded=0;" parent="1" edge="1">
          <mxGeometry width="80" relative="1" as="geometry">
            <mxPoint x="820" y="100" as="sourcePoint" />
            <mxPoint x="480" y="200" as="targetPoint" />
          </mxGeometry>
        </mxCell>
        <mxCell id="dnkcXnuNvbxCSVGutcAZ-2" value="JOIN CLASS" style="ellipse;whiteSpace=wrap;html=1;" parent="1" vertex="1">
          <mxGeometry x="355" y="740" width="140" height="70" as="geometry" />
        </mxCell>
        <mxCell id="dnkcXnuNvbxCSVGutcAZ-3" value="join live&amp;nbsp;&lt;div&gt;class session&lt;/div&gt;" style="html=1;verticalAlign=bottom;endArrow=block;curved=0;rounded=0;exitX=0;exitY=0.889;exitDx=0;exitDy=0;exitPerimeter=0;entryX=0.286;entryY=0;entryDx=0;entryDy=0;entryPerimeter=0;" parent="1" source="llyji_vWwlnvP6TQmnhk-19" target="dnkcXnuNvbxCSVGutcAZ-2" edge="1">
          <mxGeometry width="80" relative="1" as="geometry">
            <mxPoint x="270" y="410" as="sourcePoint" />
            <mxPoint x="350" y="410" as="targetPoint" />
          </mxGeometry>
        </mxCell>
        <mxCell id="dnkcXnuNvbxCSVGutcAZ-4" value="join live&lt;div&gt;class session&lt;/div&gt;" style="html=1;verticalAlign=bottom;endArrow=block;curved=0;rounded=0;exitX=0.333;exitY=1;exitDx=0;exitDy=0;exitPerimeter=0;entryX=0.786;entryY=0.286;entryDx=0;entryDy=0;entryPerimeter=0;" parent="1" source="llyji_vWwlnvP6TQmnhk-21" target="dnkcXnuNvbxCSVGutcAZ-2" edge="1">
          <mxGeometry width="80" relative="1" as="geometry">
            <mxPoint x="290" y="420" as="sourcePoint" />
            <mxPoint x="370" y="420" as="targetPoint" />
          </mxGeometry>
        </mxCell>
        <mxCell id="dnkcXnuNvbxCSVGutcAZ-5" value="" style="html=1;verticalAlign=bottom;endArrow=block;curved=0;rounded=0;" parent="1" edge="1">
          <mxGeometry width="80" relative="1" as="geometry">
            <mxPoint x="95" y="160" as="sourcePoint" />
            <mxPoint x="410" y="410" as="targetPoint" />
          </mxGeometry>
        </mxCell>
        <mxCell id="dnkcXnuNvbxCSVGutcAZ-6" value="Access&lt;div&gt;learning&lt;/div&gt;&lt;div&gt;material&lt;/div&gt;" style="edgeLabel;html=1;align=center;verticalAlign=middle;resizable=0;points=[];" parent="dnkcXnuNvbxCSVGutcAZ-5" connectable="0" vertex="1">
          <mxGeometry x="0.2945" y="1" relative="1" as="geometry">
            <mxPoint y="1" as="offset" />
          </mxGeometry>
        </mxCell>
        <mxCell id="dnkcXnuNvbxCSVGutcAZ-7" value="virtual classroom system&lt;div&gt;&lt;br&gt;&lt;/div&gt;" style="text;html=1;align=center;verticalAlign=middle;resizable=0;points=[];autosize=1;strokeColor=none;fillColor=none;" parent="1" vertex="1">
          <mxGeometry x="335" y="-247" width="150" height="40" as="geometry" />
        </mxCell>
      </root>
    </mxGraphModel>
  </diagram>
  <diagram id="ujMl2Q7O1NQnvSY16CHU" name="Page-3">
    <mxGraphModel grid="1" page="1" gridSize="10" guides="1" tooltips="1" connect="1" arrows="1" fold="1" pageScale="1" pageWidth="850" pageHeight="1100" math="0" shadow="0">
      <root>
        <mxCell id="0" />
        <mxCell id="1" parent="0" />
        <mxCell id="LVfxoN3SQcXvS_X4hq6p-1" value="student" style="shape=umlActor;verticalLabelPosition=bottom;verticalAlign=top;html=1;" vertex="1" parent="1">
          <mxGeometry x="70" y="50" width="30" height="60" as="geometry" />
        </mxCell>
        <mxCell id="LVfxoN3SQcXvS_X4hq6p-2" value="admin" style="shape=umlActor;verticalLabelPosition=bottom;verticalAlign=top;html=1;" vertex="1" parent="1">
          <mxGeometry x="210" y="50" width="30" height="60" as="geometry" />
        </mxCell>
        <mxCell id="LVfxoN3SQcXvS_X4hq6p-3" value="teacher" style="shape=umlActor;verticalLabelPosition=bottom;verticalAlign=top;html=1;" vertex="1" parent="1">
          <mxGeometry x="395" y="50" width="30" height="60" as="geometry" />
        </mxCell>
        <mxCell id="LVfxoN3SQcXvS_X4hq6p-5" value="learning management system&lt;div&gt;&lt;br&gt;&lt;/div&gt;" style="html=1;whiteSpace=wrap;" vertex="1" parent="1">
          <mxGeometry x="950" y="55" width="110" height="50" as="geometry" />
        </mxCell>
        <mxCell id="LVfxoN3SQcXvS_X4hq6p-6" value="application&amp;nbsp;&lt;div&gt;system&lt;/div&gt;" style="html=1;whiteSpace=wrap;" vertex="1" parent="1">
          <mxGeometry x="760" y="60" width="110" height="50" as="geometry" />
        </mxCell>
        <mxCell id="LVfxoN3SQcXvS_X4hq6p-7" value="virtual class" style="html=1;whiteSpace=wrap;" vertex="1" parent="1">
          <mxGeometry x="530" y="60" width="110" height="50" as="geometry" />
        </mxCell>
        <mxCell id="LVfxoN3SQcXvS_X4hq6p-8" value="" style="html=1;points=[[0,0,0,0,5],[0,1,0,0,-5],[1,0,0,0,5],[1,1,0,0,-5]];perimeter=orthogonalPerimeter;outlineConnect=0;targetShapes=umlLifeline;portConstraint=eastwest;newEdgeStyle={&quot;curved&quot;:0,&quot;rounded&quot;:0};" vertex="1" parent="1">
          <mxGeometry x="790" y="120" width="30" height="1240" as="geometry" />
        </mxCell>
        <mxCell id="LVfxoN3SQcXvS_X4hq6p-10" value="Use" style="endArrow=open;endSize=12;dashed=1;html=1;rounded=0;" edge="1" parent="1">
          <mxGeometry width="160" relative="1" as="geometry">
            <mxPoint x="90" y="130" as="sourcePoint" />
            <mxPoint x="100" y="1280" as="targetPoint" />
          </mxGeometry>
        </mxCell>
        <mxCell id="LVfxoN3SQcXvS_X4hq6p-11" value="Use" style="endArrow=open;endSize=12;dashed=1;html=1;rounded=0;" edge="1" parent="1">
          <mxGeometry width="160" relative="1" as="geometry">
            <mxPoint x="230" y="140" as="sourcePoint" />
            <mxPoint x="240" y="1430" as="targetPoint" />
          </mxGeometry>
        </mxCell>
        <mxCell id="LVfxoN3SQcXvS_X4hq6p-12" value="Use" style="endArrow=open;endSize=12;dashed=1;html=1;rounded=0;" edge="1" parent="1">
          <mxGeometry width="160" relative="1" as="geometry">
            <mxPoint x="410" y="130" as="sourcePoint" />
            <mxPoint x="410" y="1430" as="targetPoint" />
          </mxGeometry>
        </mxCell>
        <mxCell id="LVfxoN3SQcXvS_X4hq6p-13" value="request to join the class" style="html=1;verticalAlign=bottom;endArrow=block;curved=0;rounded=0;" edge="1" parent="1">
          <mxGeometry width="80" relative="1" as="geometry">
            <mxPoint x="100" y="180" as="sourcePoint" />
            <mxPoint x="580" y="180" as="targetPoint" />
          </mxGeometry>
        </mxCell>
        <mxCell id="LVfxoN3SQcXvS_X4hq6p-14" value="" style="html=1;points=[[0,0,0,0,5],[0,1,0,0,-5],[1,0,0,0,5],[1,1,0,0,-5]];perimeter=orthogonalPerimeter;outlineConnect=0;targetShapes=umlLifeline;portConstraint=eastwest;newEdgeStyle={&quot;curved&quot;:0,&quot;rounded&quot;:0};" vertex="1" parent="1">
          <mxGeometry x="580" y="120" width="30" height="1240" as="geometry" />
        </mxCell>
        <mxCell id="LVfxoN3SQcXvS_X4hq6p-15" value="verify stud cred" style="html=1;verticalAlign=bottom;endArrow=block;curved=0;rounded=0;" edge="1" parent="1" target="LVfxoN3SQcXvS_X4hq6p-8">
          <mxGeometry width="80" relative="1" as="geometry">
            <mxPoint x="610" y="150" as="sourcePoint" />
            <mxPoint x="690" y="150" as="targetPoint" />
          </mxGeometry>
        </mxCell>
        <mxCell id="LVfxoN3SQcXvS_X4hq6p-16" value="verification successful" style="html=1;verticalAlign=bottom;endArrow=open;dashed=1;endSize=8;curved=0;rounded=0;" edge="1" parent="1" source="LVfxoN3SQcXvS_X4hq6p-8">
          <mxGeometry relative="1" as="geometry">
            <mxPoint x="410" y="190" as="sourcePoint" />
            <mxPoint x="610" y="190" as="targetPoint" />
          </mxGeometry>
        </mxCell>
        <mxCell id="LVfxoN3SQcXvS_X4hq6p-20" value="" style="line;strokeWidth=1;fillColor=none;align=left;verticalAlign=middle;spacingTop=-1;spacingLeft=3;spacingRight=3;rotatable=0;labelPosition=right;points=[];portConstraint=eastwest;strokeColor=inherit;" vertex="1" parent="1">
          <mxGeometry x="-10" y="160" width="810" height="128" as="geometry" />
        </mxCell>
        <mxCell id="LVfxoN3SQcXvS_X4hq6p-22" value="valid info" style="text;html=1;align=center;verticalAlign=middle;resizable=0;points=[];autosize=1;strokeColor=none;fillColor=none;" vertex="1" parent="1">
          <mxGeometry x="-5" y="178" width="70" height="30" as="geometry" />
        </mxCell>
        <mxCell id="LVfxoN3SQcXvS_X4hq6p-23" value="else" style="text;html=1;align=center;verticalAlign=middle;resizable=0;points=[];autosize=1;strokeColor=none;fillColor=none;" vertex="1" parent="1">
          <mxGeometry x="15" y="288" width="50" height="30" as="geometry" />
        </mxCell>
        <mxCell id="LVfxoN3SQcXvS_X4hq6p-26" value="verify information" style="html=1;verticalAlign=bottom;endArrow=block;curved=0;rounded=0;" edge="1" parent="1" target="LVfxoN3SQcXvS_X4hq6p-8">
          <mxGeometry width="80" relative="1" as="geometry">
            <mxPoint x="620" y="270" as="sourcePoint" />
            <mxPoint x="410" y="270" as="targetPoint" />
          </mxGeometry>
        </mxCell>
        <mxCell id="LVfxoN3SQcXvS_X4hq6p-27" value="" style="html=1;verticalAlign=bottom;endArrow=open;dashed=1;endSize=8;curved=0;rounded=0;exitX=0.995;exitY=0.678;exitDx=0;exitDy=0;exitPerimeter=0;" edge="1" parent="1" source="LVfxoN3SQcXvS_X4hq6p-21" target="LVfxoN3SQcXvS_X4hq6p-14">
          <mxGeometry relative="1" as="geometry">
            <mxPoint x="410" y="270" as="sourcePoint" />
            <mxPoint x="330" y="270" as="targetPoint" />
          </mxGeometry>
        </mxCell>
        <mxCell id="LVfxoN3SQcXvS_X4hq6p-28" value="invaild info" style="edgeLabel;html=1;align=center;verticalAlign=middle;resizable=0;points=[];" connectable="0" vertex="1" parent="LVfxoN3SQcXvS_X4hq6p-27">
          <mxGeometry x="-0.2724" y="-8" relative="1" as="geometry">
            <mxPoint as="offset" />
          </mxGeometry>
        </mxCell>
        <mxCell id="LVfxoN3SQcXvS_X4hq6p-29" value="invaild info try again later" style="html=1;verticalAlign=bottom;endArrow=open;dashed=1;endSize=8;curved=0;rounded=0;" edge="1" parent="1" source="LVfxoN3SQcXvS_X4hq6p-14">
          <mxGeometry relative="1" as="geometry">
            <mxPoint x="370" y="360" as="sourcePoint" />
            <mxPoint x="100" y="340" as="targetPoint" />
            <Array as="points" />
          </mxGeometry>
        </mxCell>
        <mxCell id="LVfxoN3SQcXvS_X4hq6p-30" value="" style="html=1;points=[[0,0,0,0,5],[0,1,0,0,-5],[1,0,0,0,5],[1,1,0,0,-5]];perimeter=orthogonalPerimeter;outlineConnect=0;targetShapes=umlLifeline;portConstraint=eastwest;newEdgeStyle={&quot;curved&quot;:0,&quot;rounded&quot;:0};" vertex="1" parent="1">
          <mxGeometry x="1010" y="120" width="30" height="1240" as="geometry" />
        </mxCell>
        <mxCell id="LVfxoN3SQcXvS_X4hq6p-31" value="frame" style="shape=umlFrame;whiteSpace=wrap;html=1;pointerEvents=0;" vertex="1" parent="1">
          <mxGeometry x="150" y="470" width="890" height="460" as="geometry" />
        </mxCell>
        <mxCell id="LVfxoN3SQcXvS_X4hq6p-34" value="login" style="html=1;verticalAlign=bottom;endArrow=block;curved=0;rounded=0;" edge="1" parent="1" target="LVfxoN3SQcXvS_X4hq6p-30">
          <mxGeometry width="80" relative="1" as="geometry">
            <mxPoint x="230" y="540" as="sourcePoint" />
            <mxPoint x="690" y="510" as="targetPoint" />
          </mxGeometry>
        </mxCell>
        <mxCell id="LVfxoN3SQcXvS_X4hq6p-37" value="" style="line;strokeWidth=1;fillColor=none;align=left;verticalAlign=middle;spacingTop=-1;spacingLeft=3;spacingRight=3;rotatable=0;labelPosition=right;points=[];portConstraint=eastwest;strokeColor=inherit;" vertex="1" parent="1">
          <mxGeometry x="150" y="630" width="880" height="8" as="geometry" />
        </mxCell>
        <mxCell id="LVfxoN3SQcXvS_X4hq6p-38" value="vaild&amp;nbsp;&lt;div&gt;creds&lt;/div&gt;" style="text;html=1;align=center;verticalAlign=middle;resizable=0;points=[];autosize=1;strokeColor=none;fillColor=none;" vertex="1" parent="1">
          <mxGeometry x="145" y="533" width="50" height="40" as="geometry" />
        </mxCell>
        <mxCell id="LVfxoN3SQcXvS_X4hq6p-39" value="login" style="html=1;verticalAlign=bottom;endArrow=block;curved=0;rounded=0;" edge="1" parent="1" target="LVfxoN3SQcXvS_X4hq6p-30">
          <mxGeometry width="80" relative="1" as="geometry">
            <mxPoint x="230" y="680" as="sourcePoint" />
            <mxPoint x="590" y="680" as="targetPoint" />
          </mxGeometry>
        </mxCell>
        <mxCell id="LVfxoN3SQcXvS_X4hq6p-40" value="invaild info" style="html=1;verticalAlign=bottom;endArrow=open;dashed=1;endSize=8;curved=0;rounded=0;exitX=-0.053;exitY=0.819;exitDx=0;exitDy=0;exitPerimeter=0;" edge="1" parent="1">
          <mxGeometry relative="1" as="geometry">
            <mxPoint x="1039.9999999999998" y="779.9999999999998" as="sourcePoint" />
            <mxPoint x="821.59" y="781.7699999999998" as="targetPoint" />
            <Array as="points">
              <mxPoint x="941.59" y="781.77" />
            </Array>
          </mxGeometry>
        </mxCell>
        <mxCell id="LVfxoN3SQcXvS_X4hq6p-41" value="else" style="text;html=1;align=center;verticalAlign=middle;resizable=0;points=[];autosize=1;strokeColor=none;fillColor=none;" vertex="1" parent="1">
          <mxGeometry x="165" y="708" width="50" height="30" as="geometry" />
        </mxCell>
        <mxCell id="LVfxoN3SQcXvS_X4hq6p-42" value="" style="html=1;verticalAlign=bottom;endArrow=block;curved=0;rounded=0;" edge="1" parent="1" source="LVfxoN3SQcXvS_X4hq6p-14" target="LVfxoN3SQcXvS_X4hq6p-21">
          <mxGeometry width="80" relative="1" as="geometry">
            <mxPoint x="580" y="280" as="sourcePoint" />
            <mxPoint x="90" y="280" as="targetPoint" />
          </mxGeometry>
        </mxCell>
        <mxCell id="LVfxoN3SQcXvS_X4hq6p-21" value="frame" style="shape=umlFrame;whiteSpace=wrap;html=1;pointerEvents=0;" vertex="1" parent="1">
          <mxGeometry y="120" width="790" height="290" as="geometry" />
        </mxCell>
        <mxCell id="LVfxoN3SQcXvS_X4hq6p-49" value="frame" style="shape=umlFrame;whiteSpace=wrap;html=1;pointerEvents=0;" vertex="1" parent="1">
          <mxGeometry x="410" y="1030" width="630" height="330" as="geometry" />
        </mxCell>
        <mxCell id="LVfxoN3SQcXvS_X4hq6p-51" value="request to login" style="html=1;verticalAlign=bottom;endArrow=block;curved=0;rounded=0;" edge="1" parent="1">
          <mxGeometry width="80" relative="1" as="geometry">
            <mxPoint x="400" y="1150" as="sourcePoint" />
            <mxPoint x="790" y="1150" as="targetPoint" />
          </mxGeometry>
        </mxCell>
        <mxCell id="LVfxoN3SQcXvS_X4hq6p-52" value="verify credits" style="html=1;verticalAlign=bottom;endArrow=block;curved=0;rounded=0;" edge="1" parent="1">
          <mxGeometry width="80" relative="1" as="geometry">
            <mxPoint x="820" y="1140" as="sourcePoint" />
            <mxPoint x="1010" y="1140" as="targetPoint" />
          </mxGeometry>
        </mxCell>
        <mxCell id="LVfxoN3SQcXvS_X4hq6p-53" value="login succuss" style="html=1;verticalAlign=bottom;endArrow=open;dashed=1;endSize=8;curved=0;rounded=0;" edge="1" parent="1">
          <mxGeometry relative="1" as="geometry">
            <mxPoint x="1000" y="1190" as="sourcePoint" />
            <mxPoint x="820" y="1190" as="targetPoint" />
          </mxGeometry>
        </mxCell>
        <mxCell id="LVfxoN3SQcXvS_X4hq6p-61" value="grade assignments&lt;div&gt;grade material&lt;/div&gt;" style="edgeLabel;html=1;align=center;verticalAlign=middle;resizable=0;points=[];" connectable="0" vertex="1" parent="LVfxoN3SQcXvS_X4hq6p-53">
          <mxGeometry x="0.0905" y="11" relative="1" as="geometry">
            <mxPoint as="offset" />
          </mxGeometry>
        </mxCell>
        <mxCell id="LVfxoN3SQcXvS_X4hq6p-54" value="" style="line;strokeWidth=1;fillColor=none;align=left;verticalAlign=middle;spacingTop=-1;spacingLeft=3;spacingRight=3;rotatable=0;labelPosition=right;points=[];portConstraint=eastwest;strokeColor=inherit;" vertex="1" parent="1">
          <mxGeometry x="410" y="1198" width="600" height="42" as="geometry" />
        </mxCell>
        <mxCell id="LVfxoN3SQcXvS_X4hq6p-55" value="request to login" style="html=1;verticalAlign=bottom;endArrow=block;curved=0;rounded=0;exitX=0;exitY=0.727;exitDx=0;exitDy=0;exitPerimeter=0;" edge="1" parent="1" source="LVfxoN3SQcXvS_X4hq6p-49" target="LVfxoN3SQcXvS_X4hq6p-30">
          <mxGeometry width="80" relative="1" as="geometry">
            <mxPoint x="410" y="1239.9999999999998" as="sourcePoint" />
            <mxPoint x="1000" y="1270" as="targetPoint" />
            <Array as="points" />
          </mxGeometry>
        </mxCell>
        <mxCell id="LVfxoN3SQcXvS_X4hq6p-56" value="unsuccessful login" style="html=1;verticalAlign=bottom;endArrow=open;dashed=1;endSize=8;curved=0;rounded=0;" edge="1" parent="1">
          <mxGeometry relative="1" as="geometry">
            <mxPoint x="1010" y="1310" as="sourcePoint" />
            <mxPoint x="830" y="1310" as="targetPoint" />
          </mxGeometry>
        </mxCell>
        <mxCell id="LVfxoN3SQcXvS_X4hq6p-58" value="grade results" style="html=1;verticalAlign=bottom;endArrow=open;dashed=1;endSize=8;curved=0;rounded=0;" edge="1" parent="1">
          <mxGeometry relative="1" as="geometry">
            <mxPoint x="1010" y="580" as="sourcePoint" />
            <mxPoint x="830" y="580" as="targetPoint" />
          </mxGeometry>
        </mxCell>
        <mxCell id="LVfxoN3SQcXvS_X4hq6p-59" value="manage material&lt;div&gt;schedule classes&lt;/div&gt;" style="text;html=1;align=center;verticalAlign=middle;resizable=0;points=[];autosize=1;strokeColor=none;fillColor=none;" vertex="1" parent="1">
          <mxGeometry x="865" y="573" width="110" height="40" as="geometry" />
        </mxCell>
        <mxCell id="LVfxoN3SQcXvS_X4hq6p-62" value="enroll for course&lt;div&gt;submit assignmets&lt;/div&gt;" style="text;html=1;align=center;verticalAlign=middle;resizable=0;points=[];autosize=1;strokeColor=none;fillColor=none;" vertex="1" parent="1">
          <mxGeometry x="270" y="183" width="120" height="40" as="geometry" />
        </mxCell>
        <mxCell id="LVfxoN3SQcXvS_X4hq6p-63" value="login" style="html=1;verticalAlign=bottom;endArrow=block;curved=0;rounded=0;" edge="1" parent="1">
          <mxGeometry width="80" relative="1" as="geometry">
            <mxPoint x="230" y="750" as="sourcePoint" />
            <mxPoint x="1020" y="750" as="targetPoint" />
          </mxGeometry>
        </mxCell>
        <mxCell id="LVfxoN3SQcXvS_X4hq6p-64" value="invaild info try again later" style="html=1;verticalAlign=bottom;endArrow=open;dashed=1;endSize=8;curved=0;rounded=0;" edge="1" parent="1">
          <mxGeometry relative="1" as="geometry">
            <mxPoint x="790" y="870" as="sourcePoint" />
            <mxPoint x="250" y="870" as="targetPoint" />
          </mxGeometry>
        </mxCell>
        <mxCell id="3GvJg36n6PrxJvCjzwQY-1" value="valid login" style="text;html=1;align=center;verticalAlign=middle;resizable=0;points=[];autosize=1;strokeColor=none;fillColor=none;" vertex="1" parent="1">
          <mxGeometry x="440" y="1078" width="80" height="30" as="geometry" />
        </mxCell>
        <mxCell id="3GvJg36n6PrxJvCjzwQY-2" value="else" style="text;html=1;align=center;verticalAlign=middle;resizable=0;points=[];autosize=1;strokeColor=none;fillColor=none;" vertex="1" parent="1">
          <mxGeometry x="435" y="1228" width="50" height="30" as="geometry" />
        </mxCell>
        <mxCell id="3GvJg36n6PrxJvCjzwQY-3" value="start class&lt;div&gt;end clas sessions&lt;/div&gt;&lt;div&gt;&lt;br&gt;&lt;/div&gt;" style="text;html=1;align=center;verticalAlign=middle;resizable=0;points=[];autosize=1;strokeColor=none;fillColor=none;" vertex="1" parent="1">
          <mxGeometry x="640" y="473" width="120" height="60" as="geometry" />
        </mxCell>
      </root>
    </mxGraphModel>
  </diagram>
</mxfile>
